<ttFont>
<head>
    <!-- Most of this table will be recalculated by the compiler -->
    <tableVersion value="1.0"/>
    <fontRevision value="1.0"/>
    <checkSumAdjustment value="0x1cf78933"/>
    <magicNumber value="0x5f0f3cf5"/>
    <flags value="00000000 00000011"/>
    <unitsPerEm value="1000"/>
    <created value="Wed Oct 26 16:01:16 2016"/>
    <modified value="Wed Oct 26 16:01:16 2016"/>
    <xMin value="3"/>
    <yMin value="-525"/>
    <xMax value="578"/>
    <yMax value="1025"/>
    <macStyle value="00000000 00000000"/>
    <lowestRecPPEM value="3"/>
    <fontDirectionHint value="2"/>
    <indexToLocFormat value="0"/>
    <glyphDataFormat value="0"/>
  </head>
          <CharString index="0">
            0 hflex1
            return
          </CharString>
          <CharString index="1">
            0 flex1
            return
          </CharString>
          <CharString index="2">
            -9 -106 callsubr
            return
          </CharString>
          <CharString index="3">
            hintmask 000000000010000000000000100000000000000000000000
            return
          </CharString>
          <CharString index="4">
            hintmask 000000000100000000000000000010000000000000000000
            return
          </CharString>
          <CharString index="5">
            -6 -107 callsubr
            return
          </CharString>
          <CharString index="6">
            -107 callsubr
            0 return
          </CharString>
          <CharString index="7">
            -99 callsubr
            -17 -6 -105 callsubr
            return
          </CharString>
          <CharString index="8">
            vhcurveto
            9 0 6 -9 0 -15 0 return
          </CharString>
          <CharString index="9">
            0 5 -97 callsubr
            -5 return
          </CharString>
          <CharString index="10">
            -8 0 -16 0 -17 return
          </CharString>
          <CharString index="11">
            rmoveto
            0 6 3 3 3 7 3 -3 -101 callsubr
            return
          </CharString>
          <CharString index="12">
            5 -6 -6 -4 -5 -107 callsubr
            -15 4 -6 6 return
          </CharString>
          <CharString index="13">
            0 -3 -6 0 -16 0 -13 3 -6 -106 callsubr
            return
          </CharString>
          <CharString index="14">
            hintmask 001000000000000000000000010000000000000000000000
            return
          </CharString>
          <CharString index="15">
            hintmask 000000000000001000000000000000100000000000000000
            return
          </CharString>
          <CharString index="16">
            hintmask 000000000000001000000000000000000000001000000000
            return
          </CharString>
          <CharString index="17">
            hintmask 000000000001000000000000100000000000000000000000
            return
          </CharString>
          <CharString index="18">
            hintmask 000000000000010010000000000000000000000000000000
            return
          </CharString>
          <CharString index="19">
            hintmask 000000000000001000000001000000000000000000000000
            return
          </CharString>
          <CharString index="20">
            hintmask 000000001000000000000000000000100000000000000000
            return
          </CharString>
          <CharString index="21">
            hintmask 000100000000000000000000000000000010000000000000
            return
          </CharString>
          <CharString index="22">
            hintmask 000100000000000000000000000100000000000000000000
            return
          </CharString>
          <CharString index="23">
            hintmask 001000000000000000000000000000000010000000000000
            return
          </CharString>
          <CharString index="24">
            hintmask 000000000001000000000000000000100000000000000000
            return
          </CharString>
          <CharString index="25">
            0 -16 -6 -105 callsubr
            return
          </CharString>
          <CharString index="26">
            0 13 -4 6 -5 -6 -4 -102 callsubr
            return
          </CharString>
          <CharString index="27">
            -3 -3 -5 -4 -4 3 -107 callsubr
            return
          </CharString>
          <CharString index="28">
            vhcurveto
            hintmask 000000010000000000000000000000000000001000000000
            return
          </CharString>
          <CharString index="29">
            rmoveto
            hintmask 000010000000000000000010000000000000000000000000
            return
          </CharString>
          <CharString index="30">
            -6 9 16 hvcurveto
            return
          </CharString>
        <CharString name=".notdef">
          500 -200 69 33 47 33 23 33 47 33 60 33 24 56 22 34 23 33 37 33 27 34 36 34 26 33 37 33 67 hstem
          93 74 33 33 34 33 33 77 vstem
          410 800 rmoveto
          -317 -1000 317 hlineto
          -77 933 rmoveto
          -33 -66 -37 66 -33 -166 33 66 37 -65 33 vlineto
          99 -129 rmoveto
          -70 66 -34 -166 104 vlineto
          66 -34 rmoveto
          -33 -36 33 hlineto
          100 -61 rmoveto
          -33 -66 -70 -100 33 66 37 -66 33 vlineto
          166 -60 rmoveto
          -100 -166 34 133 66 vlineto
          33 -122 rmoveto
          -113 -166 113 33 -80 100 47 -33 -23 -34 56 vlineto
          100 -173 rmoveto
          -113 -166 113 vlineto
          133 -33 rmoveto
          -100 -47 100 hlineto
          33 -56 rmoveto
          -33 -32 vlineto
          -70 -47 rlineto
          102 -33 -166 33 hlineto
          70 47 rlineto
          -70 33 hlineto
          endchar
        </CharString>
        <CharString name="A">
          580 213 72 342 73 hstem
          3 574 vstem
          240 700 rmoveto
          -237 -700 rlineto
          91 hlineto
          67 213 rlineto
          255 hlineto
          66 -213 rlineto
          95 hlineto
          -237 700 rlineto
          -157 -415 rmoveto
          33 107 24 79 24 75 22 81 rlinecurve
          4 hlineto
          22 -81 23 -76 25 -78 34 -107 rcurveline
          endchar
        </CharString>
        <CharString name="B">
          618 0 70 264 68 228 70 hstemhm
          90 88 272 88 -47 87 hintmask 11110100
          90 700 rmoveto
          -700 223 vlineto
          157 108 67 138 96 -58 55 -85 16 hvcurveto
          5 vlineto
          hintmask 11111000
          67 21 36 62 69 vvcurveto
          123 -98 48 -142 vhcurveto
          -16 -298 rmoveto
          -104 228 108 hlineto
          109 55 -31 -81 -72 -49 -44 -119 hvcurveto
          hintmask 11110100
          18 -332 rmoveto
          -122 264 122 hlineto
          123 68 -39 -87 -94 -71 -44 -120 hvcurveto
          endchar
        </CharString>
        <CharString name="C">
          282 -522 22 -16 7 15 13 267 11 5 16 -13 19 143 74 447 21 6 12 157 21 -5 22 6 62 -9 41 -32 23 167 21 -6 22 hstemhm
          66 22 -21 25 -11 44 -35 13 -8 19 -11 22 -21 9 -4 17 -9 9 -1 23 -16 19 -13 8 -6 9 -9 24 -22 10 0 19 -15 18 -12 21 -20 10 -3 19 -12 9 -7 23 -21 9 vstemhm
          198 9 -6 9 7 10 hintmask 001100001100011000010000000000100000000010000000
          90 980 rmoveto
          13 hlineto
          hintmask 000000000000000100010000000000000000000000000000
          37 -11 4 vlineto
          5 2 3 0 3 2 rrcurveto
          6 hlineto
          -88 callsubr
          -45 9 -4 vlineto
          hintmask 001100001100011000010000000000100000000010000000
          -28 hlineto
          -88 callsubr
          36 25 rmoveto
          -92 callsubr
          16 6 8 8 vhcurveto
          11 0 7 -97 callsubr
          -7 -8 -106 callsubr
          -88 callsubr
          -8 -6 8 17 hvcurveto
          hintmask 000000000000001000000000000001000000000000000000
          38 hmoveto
          -91 callsubr
          16 6 8 9 vhcurveto
          11 -98 callsubr
          -8 -106 callsubr
          hintmask 000000000000001000000000000001000000000000000000
          -9 -6 8 17 hvcurveto
          hintmask 000000000000001000000000000000000000010000000000
          38 hmoveto
          hintmask 000000000000001000000000000000000000000001000000
          16 5 8 10 vhcurveto
          10 -98 callsubr
          -8 -106 callsubr
          hintmask 000000000000001000000000000000000000010000000000
          -10 -5 8 17 hvcurveto
          -92 callsubr
          -51 hmoveto
          hintmask 000000000000001000000000001000000000000000000000
          0 14 -4 6 -7 -3 -5 -102 callsubr
          -15 5 -6 3 vhcurveto
          -92 callsubr
          7 4 6 15 hvcurveto
          -91 callsubr
          39 hmoveto
          hintmask 000000000000001000000000000000000001000000000000
          0 14 -5 6 -6 -5 -4 -102 callsubr
          -15 4 -6 5 vhcurveto
          -91 callsubr
          6 5 6 15 hvcurveto
          hintmask 000000000000001000000000000000000000000001000000
          37 hmoveto
          0 14 -3 6 -7 -7 -1 -102 callsubr
          -15 1 -6 7 7 3 6 15 vhcurveto
          hintmask 000000000000000100010000000000000000000000000000
          -177 -6 rmoveto
          0 6 5 5 3 6 3 -5 -101 callsubr
          -3 -3 -6 -6 -3 -5 6 -107 callsubr
          -89 callsubr
          38 -205 rmoveto
          7 3 3 7 3 vhcurveto
          -3 3 -4 4 3 vvcurveto
          hintmask 000000000000010000000000100000000000000000000000
          0 9 7 3 6 10 3 -3 -107 callsubr
          -3 -3 -7 -3 vhcurveto
          hintmask 000000000001000010000000000000000000000000000000
          6 -3 3 -3 -7 vvcurveto
          -89 callsubr
          0 -9 -6 -6 -10 -9 -7 6 -107 callsubr
          -90 callsubr
          38 10 rmoveto
          -83 callsubr
          19 7 6 9 vhcurveto
          10 0 6 -6 0 -19 -82 callsubr
          -90 callsubr
          -9 -7 9 16 hvcurveto
          hintmask 000000000000010000000000000000100000000000000000
          39 hmoveto
          hintmask 000000000000010000000000000000000000001000000000
          19 6 6 10 vhcurveto
          9 0 7 -6 0 -19 0 -16 -7 -105 callsubr
          hintmask 000000000000010000000000000000100000000000000000
          -10 -77 callsubr
          hintmask 000000000000010000001000000000000000000000000000
          -51 13 rmoveto
          0 6 -3 3 -7 -3 -6 -3 -101 callsubr
          -3 6 -4 6 -3 4 3 3 4 -106 callsubr
          -83 callsubr
          38 -13 rmoveto
          hintmask 000000000000100000000000000000100000000000000000
          16 -3 6 -7 vhcurveto
          -83 callsubr
          -6 -94 callsubr
          7 3 6 13 hvcurveto
          hintmask 000000000000100000000000000000000000001000000000
          38 hmoveto
          16 -3 6 -6 vhcurveto
          -7 -94 callsubr
          6 3 6 13 hvcurveto
          -89 callsubr
          -140 -3 -96 callsubr
          -7 -3 -3 -7 -3 -3 3 -107 callsubr
          hintmask 000000000001000000001000000000000000000000000000
          64 -7 rmoveto
          hintmask 000000000000010000001000000000000000000000000000
          0 7 -7 0 -6 3 -3 -3 -3 -3 -106 callsubr
          hintmask 000000000001000000001000000000000000000000000000
          0 -6 3 -3 6 7 3 3 -107 callsubr
          hintmask 000000000100000000000000100000000000000000000000
          11 -85 rmoveto
          -103 callsubr
          15 6 9 9 -100 callsubr
          hintmask 000000000100000000000000100000000000000000000000
          -9 -6 9 17 hvcurveto
          -103 callsubr
          37 hmoveto
          hintmask 000000000100000000000000000000000000100000000000
          15 5 9 10 -100 callsubr
          -103 callsubr
          -10 -5 9 17 hvcurveto
          -104 callsubr
          -51 17 rmoveto
          -24 6 hlineto
          -90 callsubr
          31 -4 hlineto
          hintmask 000000000010000000000100000000000000000000000000
          -11 -14 -2 -11 -1 -18 rrcurveto
          -6 hlineto
          -104 callsubr
          17 4 12 9 12 vhcurveto
          -103 callsubr
          38 -17 rmoveto
          0 13 -4 6 -5 -6 -3 -102 callsubr
          -14 3 -7 6 5 4 7 14 vhcurveto
          hintmask 000000000100000000000000000000000000100000000000
          37 hmoveto
          -81 callsubr
          -14 4 -7 6 5 4 7 14 vhcurveto
          -104 callsubr
          -136 -5 rmoveto
          0 5 4 4 4 5 3 -4 -101 callsubr
          -6 -80 callsubr
          76 -191 rmoveto
          -87 callsubr
          16 6 8 10 vhcurveto
          10 0 6 -97 callsubr
          -6 -105 callsubr
          -104 callsubr
          -10 -6 9 17 hvcurveto
          -87 callsubr
          38 hmoveto
          hintmask 000000001000000000000000000000000000001000000000
          16 6 8 10 vhcurveto
          10 -98 callsubr
          -105 callsubr
          -87 callsubr
          -10 -6 9 17 hvcurveto
          hintmask 000000010000000000010000000000000000000000000000
          -77 -19 rmoveto
          3 4 rlineto
          -3 3 4 -3 6 hhcurveto
          6 0 4 4 0 7 0 7 -4 4 -106 callsubr
          -3 -2 -1 -2 -3 hvcurveto
          -4 2 rlineto
          hintmask 000000001000000001000000000000000000000000000000
          2 23 rlineto
          hintmask 000000001000000000000000100000000000000000000000
          24 -5 hlineto
          hintmask 000000001000000000010000000000000000000000000000
          -19 hlineto
          -1 -14 rlineto
          1 2 3 1 3 hhcurveto
          hintmask 000000001000000000000000100000000000000000000000
          8 6 -5 -11 hvcurveto
          hintmask 000000010000000000000000100000000000000000000000
          -10 -7 -6 -9 vhcurveto
          hintmask 000000010000000000010000000000000000000000000000
          -7 -6 3 4 -3 hvcurveto
          hintmask 000000010000000000000000000000100000000000000000
          65 19 rmoveto
          0 14 -4 -95 callsubr
          6 4 6 15 -79 callsubr
          37 hmoveto
          hintmask 000000010000000000000000000000000001000000000000
          0 14 -3 -95 callsubr
          -79 callsubr
          6 3 6 15 hvcurveto
          hintmask 000000001000000000010000000000000000000000000000
          -139 -5 rmoveto
          0 6 4 3 5 4 4 -3 -101 callsubr
          -6 -4 -3 -4 -5 -4 3 -107 callsubr
          hintmask 000000100000000000100000000000001000000000000000
          75 -500 rmoveto
          31 12 19 19 18 13 -19 -31 -31 -13 -19 -18 -19 -12 19 31 vhcurveto
          49 hmoveto
          31 -6 6 -12 vhcurveto
          -13 0 -6 -6 0 -31 0 -25 6 -12 -106 callsubr
          12 6 12 25 hvcurveto
          -124 -6 rmoveto
          0 12 6 6 6 13 6 -6 -101 callsubr
          -13 -6 -6 -13 -6 -6 6 -107 callsubr
          hintmask 000100000000000000000010000000000000000000000000
          60 -213 -78 callsubr
          14 14 8 8 8 vvcurveto
          5 -3 4 -6 -4 -3 -3 -3 -3 vhcurveto
          -4 4 rlineto
          -85 callsubr
          4 4 5 3 5 hhcurveto
          9 6 -6 -8 -9 -8 -9 -11 -11 hvcurveto
          21 -5 hlineto
          hintmask 000100000000000000000010000000000000000000000000
          -30 hlineto
          -85 callsubr
          36 24 rmoveto
          -86 callsubr
          15 6 9 10 -99 callsubr
          -16 -6 -9 0 flex1
          -85 callsubr
          -10 -77 callsubr
          hintmask 000100000000000000000000000000000100000000000000
          37 hmoveto
          hintmask 000100000000000000000000000000000000000100000000
          15 6 9 9 vhcurveto
          10 0 5 -9 0 -15 0 -16 -5 -105 callsubr
          hintmask 000100000000000000000000000000000100000000000000
          -9 -77 callsubr
          -86 callsubr
          -12 hmoveto
          hintmask 000100000000000000000000000000010000000000000000
          -81 callsubr
          -86 callsubr
          0 -14 4 -6 6 5 4 6 -107 callsubr
          hintmask 000100000000000010000000000000000000000100000000
          36 hmoveto
          0 13 -3 6 -6 -6 -3 -6 -101 callsubr
          -14 3 -6 6 6 3 6 -107 callsubr
          -157 -5 rmoveto
          0 6 4 3 4 5 3 -3 -101 callsubr
          -5 -80 callsubr
          37 2 -78 callsubr
          17 -5 hlineto
          hintmask 000100000000000010000000000000000000000100000000
          -17 hlineto
          -93 callsubr
          61 -297 rmoveto
          -84 callsubr
          16 6 9 9 vhcurveto
          10 0 6 -9 0 -16 -82 callsubr
          -93 callsubr
          -9 -77 callsubr
          -84 callsubr
          37 hmoveto
          hintmask 001000000000000000000000000000000000000010000000
          16 7 9 9 vhcurveto
          9 0 7 -9 0 -16 0 -16 -7 -105 callsubr
          -84 callsubr
          -9 -7 9 16 hvcurveto
          hintmask 100000000000000000000001000000000000000000000000
          -75 -19 rmoveto
          3 3 rlineto
          hintmask 100000000000000000000100000000000000000000000000
          -3 3 3 -3 6 hhcurveto
          hintmask 100000000000000000000000100000000000000000000000
          7 0 3 6 0 7 0 6 -3 3 -106 callsubr
          -3 -3 0 -3 -3 hvcurveto
          -3 3 rlineto
          hintmask 001000000000000000000100000000000000000000000000
          3 22 rlineto
          hintmask 001000000000000000000000000010000000000000000000
          22 -3 hlineto
          -93 callsubr
          -19 -16 hlineto
          3 0 3 3 hhcurveto
          hintmask 010000000000000000000000010000000000000000000000
          10 0 6 -6 0 -9 0 -10 -6 -6 -106 callsubr
          hintmask 100000000000000000000001000000000000000000000000
          -6 -6 3 3 -3 hvcurveto
          hintmask 100000000000000000000000000000000010000000000000
          63 19 rmoveto
          hintmask 100000000000000000000000000000001000000000000000
          0 13 -3 6 -7 -3 -6 -102 callsubr
          -16 6 -6 3 vhcurveto
          hintmask 100000000000000000000000000000000010000000000000
          7 3 6 16 hvcurveto
          hintmask 100000000000000010000000000000000000000010000000
          37 hmoveto
          0 13 -3 6 -6 -6 -3 -102 callsubr
          -16 3 -6 6 6 3 6 16 vhcurveto
          -160 -6 -96 callsubr
          -3 -3 -7 -7 -3 -3 7 -107 callsubr
          hintmask 001000000000000010000000000000000000000000000000
          38 3 rmoveto
          hintmask 001000000000000000000100000000000000000000000000
          15 -6 hlineto
          hintmask 010000000000000010000000000000000000000000000000
          -15 hlineto
          endchar
        </CharString>
</ttFont>
